<svg version="1.2" xmlns="http://www.w3.org/2000/svg" viewBox="0 0 333 840" width="333" height="840"><style>.a{opacity:.1;fill:#1c1918}.b{fill:#33343d}.c{fill:#705543}.d{fill:#543d31}.e{fill:#ddcea6}.f{fill:#ddbca6}.g{fill:#fff}.h{fill:#efefed}.i{fill:#f7ceb2}.j{fill:#222228}.k{fill:#84653c}.l{opacity:.4;fill:#b57662}.m{fill:#d39484}.n{fill:#adadad}</style><path class="a" d="m332.7 823.3c0 9.1-70.9 16.4-156 16.4-85 0-151.8-7.3-151.8-16.4 0-9 66.8-16.3 151.8-16.3 85.1 0 156 7.3 156 16.3z"/><path class="b" d="m240.3 755.2l5.9 49.2h-17.6l-7.5-45.2z"/><path class="c" d="m251.5 783c0 0 10 13 25.2 17.5 15.2 4.6 28.9 10.4 27.8 19.6 0 0-22.6 11.1-59.3-1.3v3.9l-24.1-1v-32.1l20 1.4-1.5-3.1z"/><path class="d" d="m261.2 819.3c32.9 8.4 41.2-0.9 43.1-1.6q0.4 1.2 0.2 2.4c0 0-22.6 11.1-59.3-1.3v3.9l-24.1-1v-6.4c8.6 0.5 15.8-2.2 40.1 4z"/><path class="b" d="m137.1 759.2l-7.5 45.2h-17.6l5.9-49.2z"/><path class="c" d="m118.6 787.9l-1.5 3.1 20-1.4v32.1l-24.1 1v-3.9c-36.7 12.4-61 1.3-61 1.3-1.1-9.2 14.3-15 29.5-19.6 15.2-4.5 25.2-17.5 25.2-17.5z"/><path class="d" d="m137.1 813.6v8.1l-24.1 1v-3.9c-36.7 12.4-61 1.3-61 1.3q-0.1-1.2 0.2-2.4c1.9 0.7 16.7 6.9 39.8 3.3 22.2-3.5 36.5-6.9 45.1-7.4z"/><path class="e" d="m218.2 382.6l18.9 233.6 16.3 159.9c0 0-8.9 12.2-42.2 6.7l-17.5-167.7-21.5-137.7h-17.1l-11.4 305.4c0 0-14.4 11.1-41.1 1.1l5.3-393.1z"/><path class="f" d="m169.4 181.9l-1.5 62.1-37.4-16.7 1.2-63.9z"/><path class="g" d="m229.6 227.9c0 0-3.6 111-10.8 167.3 0 0-27.5 12.3-71.2 10.5-31-1.2-39.9-7.8-39.9-7.8l-44.3-182.5c0 0 22.3-10.8 69.4-10.8 0 0-0.1-1.5 10.6 4.2 8.2 4.3 11 34 11 34 0 0 1.6-29.8 6.2-32.3 7.1-3.7 5.9-2.9 11.7-4.5 17.8 1.2 36.2 6.6 56.9 10.1z"/><path class="h" d="m185.1 204.8l-11.5 25.3-13-19.6 20.4-13.5z"/><path class="h" d="m122.1 194.2l22.6 14.6-10.9 20.2-15.4-24.9z"/><path class="i" d="m203.1 42.8c0 0-0.4 87.9-0.4 111.6 0 23.7-25.2 37.1-45.4 34.6-20.1-2.6-42.8-19.1-47.9-30-1.4-2.8-2.4-11.1-3.2-21.8-18.4 3.3-27.3-34.7-15.3-39.9 5.7-2.5 11.3-0.6 14.6 4-0.7-22.5-1.8-41.3-1.8-41.3 0 0-1-24.4 34.6-32.5 58.8-13.4 64.8 15.3 64.8 15.3z"/><path class="j" d="m149.5 99.4c0 5.2-2.3 9.4-5.2 9.4-2.8 0-5.1-4.2-5.1-9.4 0-5.1 2.3-9.3 5.1-9.3 2.9 0 5.2 4.2 5.2 9.3z"/><path class="j" d="m192.8 101.5c0 5.2-2.3 9.4-5.1 9.4-2.9 0-5.2-4.2-5.2-9.4 0-5.2 2.3-9.4 5.2-9.4 2.8 0 5.1 4.2 5.1 9.4z"/><path class="k" d="m157.9 78c0 0-2.4 0.2-5.3 0.1-1.5 0-3.1-0.1-4.8-0.1-0.4 0-0.8 0-1.2 0q-0.6 0-1.2 0c-0.9-0.1-1.6 0.1-2.4 0-0.8 0.1-1.6 0.1-2.3 0.3-0.7 0.1-1.4 0.1-2.1 0.3-0.3 0.1-0.7 0.2-1 0.3-0.4 0-0.7 0.2-1 0.3-0.7 0.2-1.4 0.4-2 0.7-0.6 0.3-1.2 0.5-1.8 0.8-0.5 0.3-1 0.6-1.4 0.8-0.8 0.4-1.4 0.7-1.4 0.7 0 0 0-0.6 0.1-1.6 0.1-0.5 0.2-1.1 0.3-1.8 0.2-0.7 0.6-1.4 1-2.2 0.2-0.4 0.4-0.8 0.7-1.2q0.5-0.5 1-1.1 0.5-0.6 1.2-1.2c0.4-0.3 0.9-0.6 1.4-0.9 1-0.7 2.1-1.1 3.3-1.5 1.1-0.4 2.3-0.5 3.5-0.6 1.2 0 2.4-0.1 3.5 0.2q1.7 0.2 3.2 0.8c2 0.7 3.7 1.7 5 2.7 1.3 1 2.2 2.1 2.8 2.9 0.6 0.8 0.9 1.3 0.9 1.3z"/><path class="k" d="m179 78q0 0 0.1-0.3c0.1-0.2 0.2-0.6 0.4-1 0.4-0.8 1.1-1.8 2.1-2.8 1-1 2.4-2.1 4.2-2.8 0.8-0.4 1.8-0.7 2.8-0.9 1-0.1 2.1-0.2 3.2-0.1 1.2 0.2 2.3 0.4 3.3 0.9 1.1 0.4 2 1 2.8 1.7 0.9 0.6 1.4 1.5 1.9 2.2 0.6 0.8 0.8 1.6 1.1 2.3 0.2 0.7 0.4 1.4 0.4 2 0.1 0.6 0.1 1.2 0.1 1.6 0 0.4-0.1 0.8-0.1 1q-0.1 0.4-0.1 0.4 0 0-0.3-0.2c-0.3-0.1-0.6-0.3-1-0.5-0.3-0.2-0.8-0.4-1.2-0.7-0.4-0.3-1-0.5-1.5-0.8-0.5-0.2-1-0.6-1.5-0.7-0.6-0.2-1.1-0.5-1.6-0.6q-0.4-0.1-0.8-0.2c-0.2-0.1-0.5-0.1-0.7-0.2-0.5-0.1-1.1-0.1-1.6-0.2q-0.8-0.1-1.7-0.1c-0.6 0-1.2-0.1-1.9-0.1-1.2 0-2.6 0.1-3.8 0.1-0.6 0.1-1.2 0-1.8 0.1-0.5 0-1 0-1.4 0-0.9 0-1.4-0.1-1.4-0.1z"/><path class="l" d="m92.6 103.8c6.3-3.2 11.9 7 12.1 17.8-5.1-0.7-6 5.3-3.1 9.5-10.3 2.2-15.7-23.9-9-27.3z"/><path class="i" d="m317.9 434c-0.6 2.2-2 9.1-14.5 0.2 0 0-4.6-4.8-5.4-1.4-0.6 2.7 5.3 9.2 11.6 18.8 8.7 13.2 5.4 12 2.6 11.3-2.7-0.7-13.3-14.1-17.5-17-3.2-2.3 13.9 22.4 11 24.8-4.9 3.9-19.7-24.5-19.9-21-0.3 3.5 8.9 21 7.6 23.2-4.2 6.9-15.7-23.7-17.4-22.8-1.4 0.7 3.7 15 1 16.9-2.7 2-5.1-5.4-6.5-9.9-1.7-5.2-2-7.7-3.8-12.7-1.9-4.9-5.6-12.5-2.8-19.5 0 0 0.1-0.2 0.4-0.4-13-25.6-31.3-74.7-31.3-74.7l26.3-18.6c0 0 18.2 61.4 25.1 84 8 0.9 14 2.3 19 8.6 5.2 6.6 15.2 8 14.5 10.2z"/><path class="m" d="m171.5 89.6c0.7 1.4 1.3 2.9 1.8 4.4q0.8 2.3 1.5 4.6c0.4 1.5 0.8 3 1.2 4.6l1.1 4.6c0.7 3.1 1.2 6.3 1.8 9.4 0.4 3.2 0.9 6.3 1.2 9.5v0.5l-0.4 0.2c-1.9 0.9-3.8 1.8-5.8 2.7-1.9 0.8-3.9 1.7-5.9 2.5 1.8-1.2 3.7-2.2 5.5-3.3 1.8-1.1 3.7-2.1 5.6-3.2l-0.4 0.8c-0.7-3.1-1.2-6.2-1.7-9.4l-0.9-4.6c-0.3-1.6-0.5-3.1-0.9-4.7l-1.7-9.3c-0.3-1.6-0.7-3.1-0.9-4.7q-0.5-2.3-1.1-4.6z"/><path class="g" d="m255.4 422.1l-27.2-81.8-23.2-72.5c-18.6-52.1 10.4-55 24.2-51.7l27.8 96.6 31.7 93.4z"/><path class="i" d="m52.1 347.4l-23.2 75.2c0 0 3.5 2.3 4.7 13.2 1.2 10.8 1.4 18.8 1.4 18.8 0 0 2.8 8.5-3.1 6.2-4.3-1.7-6-6.1-6-6.1-0.1 14.2-6.5 16.3-9.4 13.2-1.8-2-2.3-6-2.3-6-6.4 1.4-7.2-4.1-7.2-4.1-5.3-0.7-5.9-4.8-5.9-4.8-5.5-5.3 15.5-63.8 15.5-63.8z"/><path class="g" d="m7.7 407.1l27.7-94.4 27.8-96.6c13.9-3.3 42.8-0.4 24.3 51.7l-23.3 72.5-28.5 78.1z"/><path class="m" d="m143.7 147.1c0 0 0.7 0.2 1.8 0.7 1.2 0.4 2.9 0.9 4.8 1.5 2 0.6 4.4 1.2 6.9 1.8 1.2 0.4 2.6 0.6 3.9 0.9q2 0.3 4 0.6c1.4 0.2 2.8 0.4 4.1 0.5 1.4 0 2.7 0.2 4 0.2 1.3 0 2.5 0 3.7-0.1 1.2-0.1 2.3 0 3.3-0.2q1.6-0.2 2.8-0.4c0.9-0.1 1.6-0.3 2.2-0.4 1.2-0.3 1.9-0.4 1.9-0.4 0 0-0.7 0.3-1.8 0.7-0.6 0.2-1.3 0.5-2.1 0.8q-1.3 0.4-2.8 0.8c-1 0.3-2.2 0.4-3.4 0.5-1.2 0.3-2.5 0.3-3.8 0.4-1.3 0-2.7 0-4.1-0.1-1.4 0-2.8-0.3-4.2-0.4-2.8-0.4-5.6-1-8.1-1.8-2.6-0.7-4.9-1.6-6.8-2.4-3.9-1.7-6.3-3.2-6.3-3.2z"/><path fill-rule="evenodd" class="k" d="m216.7 49.4c0 0-21.3 34-91.1 7.2-1.3 13-11.9 22.1-11.9 22.1v23.2-0.1q0 0.7 0 1.5v8.6c1.1 34.1 15.5 43.3 23.4 29.9 10-17.2 22.3-9.9 31.3-8.7 28.7-3.2 23.1 14 29.1 15.6 6 1.7 5.2-11.6 5.2-11.6 8.7 49.3-26.3 64.7-64.3 50-38-14.7-34.7-43.7-32.2-49.9 1.6-4.1 1.9-12 1.9-16.6l-2.2-17.2c0 0-3-6.5-7.8-7.2-4.8-12.7-8.6-23.1-8.6-33.1 0-26.5 15.7-24.8 15.7-24.8 0 0 0.1-0.9 0.6-2.4 11.1-41.9 43.1-39.1 65.5-30.3 3.1 1.1 6.2 2.5 9.1 4.2 2.2 1.1 4.2 2.2 6 3.3 19.7 12 28 7 28 7-1.3 4-8 6.7-8 6.7 11.7 0 13-8.4 13-8.4 5.3 15.4-8.3 30.1-15.7 31 8.1 1.7 13 0 13 0zm-66.3 122.4c14.1 1.3 11.7-12.4 11.7-12.4l6.3 1c0 0-4 17.7 12 11.7 16-6 11.3-21 9.7-23 0 0-11.5 0.6-20.2-6.2 0 0-10.9 6.1-25.8 1.5 0 0-14.4 25.4 6.3 27.4z"/><path class="c" d="m203.9 405.6c9.5-2.4 14.2-5.5 14.3-5.5 2.8-1.1 2.4 2 2.7 5.3 0.4 4.3-0.2 6.5-2.8 7.4-0.4 0.2-2.6 2.8-12.2 5.4q-1-6.3-2-12.6z"/><path class="c" d="m135.3 409.2c10.7 1.1 22.3 1.3 34.9 0.9 9.7-0.2 18.4-1.4 25.8-2.8-0.3 4.4 0.2 8.7 0.9 13.1-7.5 1.5-16.4 2.8-26.5 3.1q-6.1 0.1-12 0c-8.8-0.1-16.9-0.7-24.5-1.6 0.9-4.2 1.4-8.4 1.4-12.7z"/><path class="c" d="m104.2 408.2c0.5-3.2 0.9-6.1 3.7-5 6.2 2.3 13.1 4 20.5 5.1-0.3 4.2-0.8 8.4-1.4 12.5-7.7-1.3-14.8-3.3-21.5-6-2-0.8-1.9-3.4-1.3-6.6z"/><path fill-rule="evenodd" class="n" d="m177.5 408l-0.3 15.9-24.7 1.5 0.3-17.1zm-20.8 14.4l16.4-1 0.2-10.5-16.4 0.2z"/><path class="h" d="m4.7 409.4l5-20 34.7 15.7-7.3 17z"/><path class="h" d="m247.4 407.4l38-14 6 12.7-39.3 17.3z"/></svg>